<svg width="18" height="18" viewBox="0 0 18 18" fill="none" xmlns="http://www.w3.org/2000/svg">
  <path d="M0.25 12.75C0.25 12.4185 0.381696 12.1005 0.616116 11.8661C0.850537 11.6317 1.16848 11.5 1.5 11.5H4C4.33152 11.5 4.64946 11.6317 4.88388 11.8661C5.1183 12.1005 5.25 12.4185 5.25 12.75V16.5C5.25 16.8315 5.1183 17.1495 4.88388 17.3839C4.64946 17.6183 4.33152 17.75 4 17.75H1.5C1.16848 17.75 0.850537 17.6183 0.616116 17.3839C0.381696 17.1495 0.25 16.8315 0.25 16.5V12.75ZM6.5 7.75C6.5 7.41848 6.6317 7.10054 6.86612 6.86612C7.10054 6.6317 7.41848 6.5 7.75 6.5H10.25C10.5815 6.5 10.8995 6.6317 11.1339 6.86612C11.3683 7.10054 11.5 7.41848 11.5 7.75V16.5C11.5 16.8315 11.3683 17.1495 11.1339 17.3839C10.8995 17.6183 10.5815 17.75 10.25 17.75H7.75C7.41848 17.75 7.10054 17.6183 6.86612 17.3839C6.6317 17.1495 6.5 16.8315 6.5 16.5V7.75ZM12.75 1.5C12.75 1.16848 12.8817 0.850537 13.1161 0.616116C13.3505 0.381696 13.6685 0.25 14 0.25H16.5C16.8315 0.25 17.1495 0.381696 17.3839 0.616116C17.6183 0.850537 17.75 1.16848 17.75 1.5V16.5C17.75 16.8315 17.6183 17.1495 17.3839 17.3839C17.1495 17.6183 16.8315 17.75 16.5 17.75H14C13.6685 17.75 13.3505 17.6183 13.1161 17.3839C12.8817 17.1495 12.75 16.8315 12.75 16.5V1.5Z" />
</svg>
