<svg width="18" height="18" viewBox="0 0 18 18" fill="none" xmlns="http://www.w3.org/2000/svg">
    <path d="M0.75 1.5C0.75 1.08579 1.08579 0.75 1.5 0.75H5.5C5.91421 0.75 6.25 1.08579 6.25 1.5V6.5C6.25 6.91421 5.91421 7.25 5.5 7.25H1.5C1.08579 7.25 0.75 6.91421 0.75 6.5V1.5ZM0.75 11.5C0.75 11.0858 1.08579 10.75 1.5 10.75H8.5C8.91421 10.75 9.25 11.0858 9.25 11.5V16.5C9.25 16.9142 8.91421 17.25 8.5 17.25H1.5C1.08579 17.25 0.75 16.9142 0.75 16.5V11.5ZM12.75 11.5C12.75 11.0858 13.0858 10.75 13.5 10.75H16.5C16.9142 10.75 17.25 11.0858 17.25 11.5V16.5C17.25 16.9142 16.9142 17.25 16.5 17.25H13.5C13.0858 17.25 12.75 16.9142 12.75 16.5V11.5ZM9.75 1.5C9.75 1.08579 10.0858 0.75 10.5 0.75H16.5C16.9142 0.75 17.25 1.08579 17.25 1.5V6.5C17.25 6.91421 16.9142 7.25 16.5 7.25H10.5C10.0858 7.25 9.75 6.91421 9.75 6.5V1.5Z" fill="white" stroke="#595959" stroke-width="1.5"/>
</svg>
