<svg width="16" height="20" viewBox="0 0 16 20" fill="none" xmlns="http://www.w3.org/2000/svg">
  <path d="M9.73387 16C9.73387 16.4142 10.0697 16.75 10.4839 16.75C10.8981 16.75 11.2339 16.4142 11.2339 16H9.73387ZM11.2339 11C11.2339 10.5858 10.8981 10.25 10.4839 10.25C10.0697 10.25 9.73387 10.5858 9.73387 11H11.2339ZM7.02419 16C7.02419 16.4142 7.35998 16.75 7.77419 16.75C8.18841 16.75 8.52419 16.4142 8.52419 16H7.02419ZM8.52419 13C8.52419 12.5858 8.18841 12.25 7.77419 12.25C7.35998 12.25 7.02419 12.5858 7.02419 13H8.52419ZM4.31452 16C4.31452 16.4142 4.6503 16.75 5.06452 16.75C5.47873 16.75 5.81452 16.4142 5.81452 16H4.31452ZM5.81452 14.5C5.81452 14.0858 5.47873 13.75 5.06452 13.75C4.6503 13.75 4.31452 14.0858 4.31452 14.5H5.81452ZM11.027 1.72165L10.4278 2.17268L11.027 1.72165ZM3 19.75H13V18.25H3V19.75ZM15.75 17V7.66858H14.25V17H15.75ZM15.1972 6.0148L11.6263 1.27062L10.4278 2.17268L13.9987 6.91686L15.1972 6.0148ZM0.25 3V17H1.75V3H0.25ZM14.5484 6.75H10.5806V8.25H14.5484V6.75ZM9.58064 0.25H3V1.75H9.58064V0.25ZM10.3306 6.5V1H8.83065V6.5H10.3306ZM11.2339 16V11H9.73387V16H11.2339ZM8.52419 16V13H7.02419V16H8.52419ZM5.81452 16V14.5H4.31452V16H5.81452ZM10.5806 6.75C10.4426 6.75 10.3306 6.63807 10.3306 6.5H8.83065C8.83065 7.4665 9.61415 8.25 10.5806 8.25V6.75ZM1.75 3C1.75 2.30964 2.30964 1.75 3 1.75V0.25C1.48122 0.25 0.25 1.48122 0.25 3H1.75ZM11.6263 1.27062C11.1426 0.627978 10.385 0.25 9.58064 0.25V1.75C9.91375 1.75 10.2275 1.90654 10.4278 2.17268L11.6263 1.27062ZM15.75 7.66858C15.75 7.07194 15.556 6.49149 15.1972 6.0148L13.9987 6.91686C14.1618 7.13354 14.25 7.39738 14.25 7.66858H15.75ZM13 19.75C14.5188 19.75 15.75 18.5188 15.75 17H14.25C14.25 17.6904 13.6904 18.25 13 18.25V19.75ZM3 18.25C2.30964 18.25 1.75 17.6904 1.75 17H0.25C0.25 18.5188 1.48122 19.75 3 19.75V18.25Z" stroke-width="0"/>
</svg>
