<svg width="16" height="16" viewBox="0 0 16 16" fill="none" xmlns="http://www.w3.org/2000/svg">
    <path d="M8 0.5C3.86437 0.5 0.5 3.86437 0.5 8C0.5 12.1356 3.86437 15.5 8 15.5C12.1356 15.5 15.5 12.1356 15.5 8C15.5 3.86437 12.1356 0.5 8 0.5ZM8 1.75C11.4594 1.75 14.25 4.54063 14.25 8C14.25 11.4594 11.4594 14.25 8 14.25C4.54063 14.25 1.75 11.4594 1.75 8C1.75 4.54063 4.54063 1.75 8 1.75ZM8 4.25C6.625 4.25 5.5 5.375 5.5 6.75H6.75C6.75 6.05188 7.30188 5.5 8 5.5C8.69812 5.5 9.25 6.05188 9.25 6.75C9.24983 6.98357 9.17615 7.21116 9.03941 7.40052C8.90267 7.58987 8.70979 7.73139 8.48812 7.805L8.23438 7.8825C7.98456 7.96667 7.76737 8.12693 7.61325 8.34079C7.45913 8.55465 7.37582 8.81139 7.375 9.075V9.875H8.625V9.07438L8.87875 8.99625C9.34967 8.83796 9.75922 8.53623 10.05 8.13339C10.3407 7.73055 10.4981 7.2468 10.5 6.75C10.5 5.375 9.375 4.25 8 4.25ZM7.375 10.5V11.75H8.625V10.5H7.375Z" fill="#8C8C8C"/>
</svg>
