<svg width="22" height="18" viewBox="0 0 22 18" fill="none" xmlns="http://www.w3.org/2000/svg">
  <path d="M17.25 12.5C17.25 12.9142 17.5858 13.25 18 13.25C18.4142 13.25 18.75 12.9142 18.75 12.5H17.25ZM4 3.75C3.58579 3.75 3.25 4.08579 3.25 4.5C3.25 4.91421 3.58579 5.25 4 5.25V3.75ZM15 5.25C15.4142 5.25 15.75 4.91421 15.75 4.5C15.75 4.08579 15.4142 3.75 15 3.75V5.25ZM11 7.75C10.5858 7.75 10.25 8.08579 10.25 8.5C10.25 8.91421 10.5858 9.25 11 9.25V7.75ZM15 9.25C15.4142 9.25 15.75 8.91421 15.75 8.5C15.75 8.08579 15.4142 7.75 15 7.75V9.25ZM11 11.75C10.5858 11.75 10.25 12.0858 10.25 12.5C10.25 12.9142 10.5858 13.25 11 13.25V11.75ZM15 13.25C15.4142 13.25 15.75 12.9142 15.75 12.5C15.75 12.0858 15.4142 11.75 15 11.75V13.25ZM16 0.25H3V1.75H16V0.25ZM0.25 3V15H1.75V3H0.25ZM21.25 15V6.5H19.75V15H21.25ZM18.75 12.5V4.5H17.25V12.5H18.75ZM18.75 4.5V3H17.25V4.5H18.75ZM18.5 3.75H18V5.25H18.5V3.75ZM4 5.25C4.01111 5.25 4.02221 5.25 4.03331 5.25C4.04442 5.25 4.05552 5.25 4.06662 5.25C4.07772 5.25 4.08882 5.25 4.09992 5.25C4.11101 5.25 4.12211 5.25 4.1332 5.25C4.1443 5.25 4.15539 5.25 4.16648 5.25C4.17757 5.25 4.18866 5.25 4.19975 5.25C4.21083 5.25 4.22192 5.25 4.23301 5.25C4.24409 5.25 4.25517 5.25 4.26625 5.25C4.27733 5.25 4.28841 5.25 4.29949 5.25C4.31057 5.25 4.32164 5.25 4.33272 5.25C4.34379 5.25 4.35486 5.25 4.36593 5.25C4.377 5.25 4.38807 5.25 4.39914 5.25C4.41021 5.25 4.42127 5.25 4.43233 5.25C4.4434 5.25 4.45446 5.25 4.46552 5.25C4.47658 5.25 4.48763 5.25 4.49869 5.25C4.50974 5.25 4.5208 5.25 4.53185 5.25C4.5429 5.25 4.55395 5.25 4.56499 5.25C4.57604 5.25 4.58709 5.25 4.59813 5.25C4.60917 5.25 4.62021 5.25 4.63125 5.25C4.64229 5.25 4.65333 5.25 4.66436 5.25C4.6754 5.25 4.68643 5.25 4.69746 5.25C4.70849 5.25 4.71952 5.25 4.73054 5.25C4.74157 5.25 4.75259 5.25 4.76361 5.25C4.77463 5.25 4.78565 5.25 4.79667 5.25C4.80769 5.25 4.8187 5.25 4.82971 5.25C4.84072 5.25 4.85173 5.25 4.86274 5.25C4.87375 5.25 4.88475 5.25 4.89576 5.25C4.90676 5.25 4.91776 5.25 4.92876 5.25C4.93975 5.25 4.95075 5.25 4.96174 5.25C4.97273 5.25 4.98372 5.25 4.99471 5.25C5.0057 5.25 5.01668 5.25 5.02767 5.25C5.03865 5.25 5.04963 5.25 5.06061 5.25C5.07158 5.25 5.08256 5.25 5.09353 5.25C5.1045 5.25 5.11547 5.25 5.12644 5.25C5.13741 5.25 5.14837 5.25 5.15933 5.25C5.17029 5.25 5.18125 5.25 5.19221 5.25C5.20316 5.25 5.21412 5.25 5.22507 5.25C5.23602 5.25 5.24697 5.25 5.25791 5.25C5.26886 5.25 5.2798 5.25 5.29074 5.25C5.30168 5.25 5.31261 5.25 5.32355 5.25C5.33448 5.25 5.34541 5.25 5.35634 5.25C5.36727 5.25 5.37819 5.25 5.38911 5.25C5.40003 5.25 5.41095 5.25 5.42187 5.25C5.43278 5.25 5.4437 5.25 5.45461 5.25C5.46552 5.25 5.47642 5.25 5.48733 5.25C5.49823 5.25 5.50913 5.25 5.52003 5.25C5.53092 5.25 5.54182 5.25 5.55271 5.25C5.5636 5.25 5.57449 5.25 5.58537 5.25C5.59626 5.25 5.60714 5.25 5.61802 5.25C5.6289 5.25 5.63977 5.25 5.65064 5.25C5.66152 5.25 5.67238 5.25 5.68325 5.25C5.69412 5.25 5.70498 5.25 5.71584 5.25C5.72669 5.25 5.73755 5.25 5.7484 5.25C5.75925 5.25 5.7701 5.25 5.78095 5.25C5.79179 5.25 5.80263 5.25 5.81347 5.25C5.82431 5.25 5.83515 5.25 5.84598 5.25C5.85681 5.25 5.86764 5.25 5.87846 5.25C5.88929 5.25 5.90011 5.25 5.91092 5.25C5.92174 5.25 5.93256 5.25 5.94337 5.25C5.95418 5.25 5.96498 5.25 5.97579 5.25C5.98659 5.25 5.99739 5.25 6.00818 5.25C6.01898 5.25 6.02977 5.25 6.04056 5.25C6.05135 5.25 6.06213 5.25 6.07291 5.25C6.08369 5.25 6.09447 5.25 6.10524 5.25C6.11602 5.25 6.12679 5.25 6.13755 5.25C6.14832 5.25 6.15908 5.25 6.16984 5.25C6.1806 5.25 6.19135 5.25 6.2021 5.25C6.21285 5.25 6.2236 5.25 6.23434 5.25C6.24508 5.25 6.25582 5.25 6.26656 5.25C6.27729 5.25 6.28802 5.25 6.29875 5.25C6.30947 5.25 6.3202 5.25 6.33092 5.25C6.34163 5.25 6.35235 5.25 6.36306 5.25C6.37377 5.25 6.38448 5.25 6.39518 5.25C6.40588 5.25 6.41658 5.25 6.42727 5.25C6.43797 5.25 6.44866 5.25 6.45934 5.25C6.47003 5.25 6.48071 5.25 6.49139 5.25C6.50207 5.25 6.51274 5.25 6.52341 5.25C6.53408 5.25 6.54474 5.25 6.5554 5.25C6.56606 5.25 6.57672 5.25 6.58737 5.25C6.59802 5.25 6.60867 5.25 6.61931 5.25C6.62995 5.25 6.64059 5.25 6.65123 5.25C6.66186 5.25 6.67249 5.25 6.68312 5.25C6.69374 5.25 6.70436 5.25 6.71498 5.25C6.7256 5.25 6.73621 5.25 6.74682 5.25C6.75742 5.25 6.76803 5.25 6.77862 5.25C6.78922 5.25 6.79982 5.25 6.81041 5.25C6.821 5.25 6.83158 5.25 6.84216 5.25C6.85274 5.25 6.86332 5.25 6.87389 5.25C6.88446 5.25 6.89502 5.25 6.90559 5.25C6.91615 5.25 6.9267 5.25 6.93726 5.25C6.94781 5.25 6.95835 5.25 6.9689 5.25C6.97944 5.25 6.98998 5.25 7.00051 5.25C7.01104 5.25 7.02157 5.25 7.03209 5.25C7.04262 5.25 7.05314 5.25 7.06365 5.25C7.07416 5.25 7.08467 5.25 7.09518 5.25C7.10568 5.25 7.11618 5.25 7.12667 5.25C7.13717 5.25 7.14766 5.25 7.15814 5.25C7.16862 5.25 7.1791 5.25 7.18958 5.25C7.20005 5.25 7.21052 5.25 7.22098 5.25C7.23145 5.25 7.2419 5.25 7.25236 5.25C7.26281 5.25 7.27326 5.25 7.2837 5.25C7.29415 5.25 7.30459 5.25 7.31502 5.25C7.32545 5.25 7.33588 5.25 7.3463 5.25C7.35673 5.25 7.36714 5.25 7.37755 5.25C7.38797 5.25 7.39837 5.25 7.40878 5.25C7.41918 5.25 7.42957 5.25 7.43996 5.25C7.45036 5.25 7.46074 5.25 7.47112 5.25C7.4815 5.25 7.49188 5.25 7.50225 5.25C7.51262 5.25 7.52298 5.25 7.53334 5.25C7.5437 5.25 7.55405 5.25 7.5644 5.25C7.57475 5.25 7.58509 5.25 7.59543 5.25C7.60576 5.25 7.6161 5.25 7.62642 5.25C7.63675 5.25 7.64707 5.25 7.65738 5.25C7.6677 5.25 7.67801 5.25 7.68831 5.25C7.69861 5.25 7.70891 5.25 7.7192 5.25C7.7295 5.25 7.73978 5.25 7.75006 5.25C7.76034 5.25 7.77062 5.25 7.78089 5.25C7.79116 5.25 7.80142 5.25 7.81168 5.25C7.82194 5.25 7.83219 5.25 7.84244 5.25C7.85268 5.25 7.86292 5.25 7.87316 5.25C7.88339 5.25 7.89362 5.25 7.90385 5.25C7.91407 5.25 7.92429 5.25 7.9345 5.25C7.94471 5.25 7.95491 5.25 7.96511 5.25C7.97531 5.25 7.98551 5.25 7.99569 5.25C8.00588 5.25 8.01606 5.25 8.02624 5.25C8.03641 5.25 8.04658 5.25 8.05675 5.25C8.06691 5.25 8.07707 5.25 8.08722 5.25C8.09737 5.25 8.10752 5.25 8.11765 5.25C8.12779 5.25 8.13793 5.25 8.14805 5.25C8.15818 5.25 8.1683 5.25 8.17841 5.25C8.18853 5.25 8.19864 5.25 8.20874 5.25C8.21884 5.25 8.22894 5.25 8.23903 5.25C8.24911 5.25 8.2592 5.25 8.26928 5.25C8.27935 5.25 8.28942 5.25 8.29949 5.25C8.30955 5.25 8.31961 5.25 8.32966 5.25C8.33971 5.25 8.34976 5.25 8.35979 5.25C8.36983 5.25 8.37987 5.25 8.38989 5.25C8.39992 5.25 8.40994 5.25 8.41995 5.25C8.42996 5.25 8.43997 5.25 8.44997 5.25C8.45997 5.25 8.46996 5.25 8.47995 5.25C8.48993 5.25 8.49991 5.25 8.50989 5.25C8.51986 5.25 8.52983 5.25 8.53979 5.25C8.54975 5.25 8.5597 5.25 8.56965 5.25C8.57959 5.25 8.58953 5.25 8.59947 5.25C8.6094 5.25 8.61933 5.25 8.62925 5.25C8.63917 5.25 8.64908 5.25 8.65899 5.25C8.66889 5.25 8.67879 5.25 8.68868 5.25C8.69858 5.25 8.70846 5.25 8.71834 5.25C8.72822 5.25 8.73809 5.25 8.74796 5.25C8.75782 5.25 8.76768 5.25 8.77753 5.25C8.78738 5.25 8.79723 5.25 8.80707 5.25C8.8169 5.25 8.82673 5.25 8.83656 5.25C8.84638 5.25 8.8562 5.25 8.86601 5.25C8.87581 5.25 8.88562 5.25 8.89541 5.25C8.90521 5.25 8.915 5.25 8.92478 5.25C8.93456 5.25 8.94433 5.25 8.9541 5.25C8.96386 5.25 8.97362 5.25 8.98338 5.25C8.99313 5.25 9.00287 5.25 9.01261 5.25C9.02235 5.25 9.03208 5.25 9.0418 5.25C9.05153 5.25 9.06124 5.25 9.07095 5.25C9.08066 5.25 9.09036 5.25 9.10006 5.25C9.10975 5.25 9.11944 5.25 9.12912 5.25C9.1388 5.25 9.14847 5.25 9.15813 5.25C9.1678 5.25 9.17745 5.25 9.1871 5.25C9.19675 5.25 9.2064 5.25 9.21603 5.25C9.22567 5.25 9.23529 5.25 9.24491 5.25C9.25453 5.25 9.26414 5.25 9.27375 5.25C9.28335 5.25 9.29295 5.25 9.30254 5.25C9.31213 5.25 9.32171 5.25 9.33129 5.25C9.34086 5.25 9.35043 5.25 9.35999 5.25C9.36954 5.25 9.3791 5.25 9.38864 5.25C9.39818 5.25 9.40772 5.25 9.41725 5.25C9.42677 5.25 9.43629 5.25 9.44581 5.25C9.45532 5.25 9.46482 5.25 9.47432 5.25C9.48382 5.25 9.49331 5.25 9.50279 5.25C9.51227 5.25 9.52174 5.25 9.53121 5.25C9.54067 5.25 9.55013 5.25 9.55958 5.25C9.56903 5.25 9.57847 5.25 9.5879 5.25C9.59734 5.25 9.60676 5.25 9.61618 5.25C9.6256 5.25 9.63501 5.25 9.64441 5.25C9.65381 5.25 9.66321 5.25 9.67259 5.25C9.68198 5.25 9.69135 5.25 9.70072 5.25C9.71009 5.25 9.71945 5.25 9.72881 5.25C9.73816 5.25 9.7475 5.25 9.75684 5.25C9.76618 5.25 9.77551 5.25 9.78483 5.25C9.79415 5.25 9.80346 5.25 9.81276 5.25C9.82207 5.25 9.83136 5.25 9.84065 5.25C9.84994 5.25 9.85921 5.25 9.86848 5.25C9.87776 5.25 9.88702 5.25 9.89627 5.25C9.90552 5.25 9.91477 5.25 9.92401 5.25C9.93324 5.25 9.94247 5.25 9.95169 5.25C9.96091 5.25 9.97012 5.25 9.97933 5.25C9.98853 5.25 9.99773 5.25 10.0069 5.25C10.0161 5.25 10.0253 5.25 10.0344 5.25C10.0436 5.25 10.0528 5.25 10.0619 5.25C10.0711 5.25 10.0802 5.25 10.0894 5.25C10.0985 5.25 10.1076 5.25 10.1167 5.25C10.1259 5.25 10.135 5.25 10.1441 5.25C10.1532 5.25 10.1623 5.25 10.1713 5.25C10.1804 5.25 10.1895 5.25 10.1986 5.25C10.2076 5.25 10.2167 5.25 10.2257 5.25C10.2348 5.25 10.2438 5.25 10.2528 5.25C10.2619 5.25 10.2709 5.25 10.2799 5.25C10.2889 5.25 10.2979 5.25 10.3069 5.25C10.3159 5.25 10.3249 5.25 10.3339 5.25C10.3428 5.25 10.3518 5.25 10.3608 5.25C10.3697 5.25 10.3787 5.25 10.3876 5.25C10.3966 5.25 10.4055 5.25 10.4144 5.25C10.4233 5.25 10.4322 5.25 10.4411 5.25C10.4501 5.25 10.4589 5.25 10.4678 5.25C10.4767 5.25 10.4856 5.25 10.4945 5.25C10.5033 5.25 10.5122 5.25 10.521 5.25C10.5299 5.25 10.5387 5.25 10.5476 5.25C10.5564 5.25 10.5652 5.25 10.574 5.25C10.5828 5.25 10.5916 5.25 10.6004 5.25C10.6092 5.25 10.618 5.25 10.6268 5.25C10.6355 5.25 10.6443 5.25 10.6531 5.25C10.6618 5.25 10.6706 5.25 10.6793 5.25C10.688 5.25 10.6968 5.25 10.7055 5.25C10.7142 5.25 10.7229 5.25 10.7316 5.25C10.7403 5.25 10.749 5.25 10.7577 5.25C10.7664 5.25 10.775 5.25 10.7837 5.25C10.7924 5.25 10.801 5.25 10.8096 5.25C10.8183 5.25 10.8269 5.25 10.8355 5.25C10.8442 5.25 10.8528 5.25 10.8614 5.25C10.87 5.25 10.8786 5.25 10.8872 5.25C10.8957 5.25 10.9043 5.25 10.9129 5.25C10.9214 5.25 10.93 5.25 10.9385 5.25C10.9471 5.25 10.9556 5.25 10.9641 5.25C10.9727 5.25 10.9812 5.25 10.9897 5.25C10.9982 5.25 11.0067 5.25 11.0152 5.25C11.0237 5.25 11.0321 5.25 11.0406 5.25C11.0491 5.25 11.0575 5.25 11.066 5.25C11.0744 5.25 11.0828 5.25 11.0913 5.25C11.0997 5.25 11.1081 5.25 11.1165 5.25C11.1249 5.25 11.1333 5.25 11.1417 5.25C11.1501 5.25 11.1585 5.25 11.1668 5.25C11.1752 5.25 11.1835 5.25 11.1919 5.25C11.2002 5.25 11.2086 5.25 11.2169 5.25C11.2252 5.25 11.2335 5.25 11.2418 5.25C11.2501 5.25 11.2584 5.25 11.2667 5.25C11.275 5.25 11.2833 5.25 11.2915 5.25C11.2998 5.25 11.308 5.25 11.3163 5.25C11.3245 5.25 11.3328 5.25 11.341 5.25C11.3492 5.25 11.3574 5.25 11.3656 5.25C11.3738 5.25 11.382 5.25 11.3902 5.25C11.3984 5.25 11.4065 5.25 11.4147 5.25C11.4228 5.25 11.431 5.25 11.4391 5.25C11.4473 5.25 11.4554 5.25 11.4635 5.25C11.4716 5.25 11.4797 5.25 11.4878 5.25C11.4959 5.25 11.504 5.25 11.5121 5.25C11.5201 5.25 11.5282 5.25 11.5363 5.25C11.5443 5.25 11.5523 5.25 11.5604 5.25C11.5684 5.25 11.5764 5.25 11.5844 5.25C11.5924 5.25 11.6004 5.25 11.6084 5.25C11.6164 5.25 11.6244 5.25 11.6324 5.25C11.6403 5.25 11.6483 5.25 11.6562 5.25C11.6642 5.25 11.6721 5.25 11.68 5.25C11.6879 5.25 11.6959 5.25 11.7038 5.25C11.7117 5.25 11.7195 5.25 11.7274 5.25C11.7353 5.25 11.7432 5.25 11.751 5.25C11.7589 5.25 11.7667 5.25 11.7746 5.25C11.7824 5.25 11.7902 5.25 11.798 5.25C11.8058 5.25 11.8136 5.25 11.8214 5.25C11.8292 5.25 11.837 5.25 11.8448 5.25C11.8525 5.25 11.8603 5.25 11.868 5.25C11.8758 5.25 11.8835 5.25 11.8912 5.25C11.899 5.25 11.9067 5.25 11.9144 5.25C11.9221 5.25 11.9298 5.25 11.9374 5.25C11.9451 5.25 11.9528 5.25 11.9604 5.25C11.9681 5.25 11.9757 5.25 11.9834 5.25C11.991 5.25 11.9986 5.25 12.0062 5.25C12.0138 5.25 12.0214 5.25 12.029 5.25C12.0366 5.25 12.0442 5.25 12.0517 5.25C12.0593 5.25 12.0669 5.25 12.0744 5.25C12.0819 5.25 12.0895 5.25 12.097 5.25C12.1045 5.25 12.112 5.25 12.1195 5.25C12.127 5.25 12.1345 5.25 12.142 5.25C12.1494 5.25 12.1569 5.25 12.1643 5.25C12.1718 5.25 12.1792 5.25 12.1866 5.25C12.1941 5.25 12.2015 5.25 12.2089 5.25C12.2163 5.25 12.2237 5.25 12.231 5.25C12.2384 5.25 12.2458 5.25 12.2531 5.25C12.2605 5.25 12.2678 5.25 12.2752 5.25C12.2825 5.25 12.2898 5.25 12.2971 5.25C12.3044 5.25 12.3117 5.25 12.319 5.25C12.3263 5.25 12.3335 5.25 12.3408 5.25C12.3481 5.25 12.3553 5.25 12.3625 5.25C12.3698 5.25 12.377 5.25 12.3842 5.25C12.3914 5.25 12.3986 5.25 12.4058 5.25C12.413 5.25 12.4202 5.25 12.4273 5.25C12.4345 5.25 12.4416 5.25 12.4488 5.25C12.4559 5.25 12.463 5.25 12.4701 5.25C12.4773 5.25 12.4844 5.25 12.4914 5.25C12.4985 5.25 12.5056 5.25 12.5127 5.25C12.5197 5.25 12.5268 5.25 12.5338 5.25C12.5409 5.25 12.5479 5.25 12.5549 5.25C12.5619 5.25 12.5689 5.25 12.5759 5.25C12.5829 5.25 12.5899 5.25 12.5968 5.25C12.6038 5.25 12.6108 5.25 12.6177 5.25C12.6246 5.25 12.6316 5.25 12.6385 5.25C12.6454 5.25 12.6523 5.25 12.6592 5.25C12.6661 5.25 12.673 5.25 12.6798 5.25C12.6867 5.25 12.6935 5.25 12.7004 5.25C12.7072 5.25 12.714 5.25 12.7209 5.25C12.7277 5.25 12.7345 5.25 12.7413 5.25C12.7481 5.25 12.7548 5.25 12.7616 5.25C12.7684 5.25 12.7751 5.25 12.7818 5.25C12.7886 5.25 12.7953 5.25 12.802 5.25C12.8087 5.25 12.8154 5.25 12.8221 5.25C12.8288 5.25 12.8355 5.25 12.8421 5.25C12.8488 5.25 12.8555 5.25 12.8621 5.25C12.8687 5.25 12.8753 5.25 12.882 5.25C12.8886 5.25 12.8952 5.25 12.9017 5.25C12.9083 5.25 12.9149 5.25 12.9215 5.25C12.928 5.25 12.9346 5.25 12.9411 5.25C12.9476 5.25 12.9541 5.25 12.9607 5.25C12.9672 5.25 12.9736 5.25 12.9801 5.25C12.9866 5.25 12.9931 5.25 12.9995 5.25C13.006 5.25 13.0124 5.25 13.0188 5.25C13.0253 5.25 13.0317 5.25 13.0381 5.25C13.0445 5.25 13.0509 5.25 13.0572 5.25C13.0636 5.25 13.07 5.25 13.0763 5.25C13.0827 5.25 13.089 5.25 13.0953 5.25C13.1017 5.25 13.108 5.25 13.1143 5.25C13.1205 5.25 13.1268 5.25 13.1331 5.25C13.1394 5.25 13.1456 5.25 13.1519 5.25C13.1581 5.25 13.1643 5.25 13.1705 5.25C13.1767 5.25 13.1829 5.25 13.1891 5.25C13.1953 5.25 13.2015 5.25 13.2076 5.25C13.2138 5.25 13.22 5.25 13.2261 5.25C13.2322 5.25 13.2383 5.25 13.2444 5.25C13.2505 5.25 13.2566 5.25 13.2627 5.25C13.2688 5.25 13.2749 5.25 13.2809 5.25C13.287 5.25 13.293 5.25 13.299 5.25C13.305 5.25 13.311 5.25 13.317 5.25C13.323 5.25 13.329 5.25 13.335 5.25C13.3409 5.25 13.3469 5.25 13.3528 5.25C13.3588 5.25 13.3647 5.25 13.3706 5.25C13.3765 5.25 13.3824 5.25 13.3883 5.25C13.3942 5.25 13.4001 5.25 13.4059 5.25C13.4118 5.25 13.4176 5.25 13.4234 5.25C13.4293 5.25 13.4351 5.25 13.4409 5.25C13.4467 5.25 13.4525 5.25 13.4582 5.25C13.464 5.25 13.4698 5.25 13.4755 5.25C13.4813 5.25 13.487 5.25 13.4927 5.25C13.4984 5.25 13.5041 5.25 13.5098 5.25C13.5155 5.25 13.5212 5.25 13.5268 5.25C13.5325 5.25 13.5381 5.25 13.5438 5.25C13.5494 5.25 13.555 5.25 13.5606 5.25C13.5662 5.25 13.5718 5.25 13.5774 5.25C13.5829 5.25 13.5885 5.25 13.594 5.25C13.5996 5.25 13.6051 5.25 13.6106 5.25C13.6161 5.25 13.6216 5.25 13.6271 5.25C13.6326 5.25 13.6381 5.25 13.6435 5.25C13.649 5.25 13.6544 5.25 13.6599 5.25C13.6653 5.25 13.6707 5.25 13.6761 5.25C13.6815 5.25 13.6869 5.25 13.6923 5.25C13.6976 5.25 13.703 5.25 13.7083 5.25C13.7137 5.25 13.719 5.25 13.7243 5.25C13.7296 5.25 13.7349 5.25 13.7402 5.25C13.7455 5.25 13.7508 5.25 13.756 5.25C13.7613 5.25 13.7665 5.25 13.7717 5.25C13.7769 5.25 13.7822 5.25 13.7873 5.25C13.7925 5.25 13.7977 5.25 13.8029 5.25C13.8081 5.25 13.8132 5.25 13.8183 5.25C13.8235 5.25 13.8286 5.25 13.8337 5.25C13.8388 5.25 13.8439 5.25 13.849 5.25C13.854 5.25 13.8591 5.25 13.8641 5.25C13.8692 5.25 13.8742 5.25 13.8792 5.25C13.8842 5.25 13.8892 5.25 13.8942 5.25C13.8992 5.25 13.9042 5.25 13.9091 5.25C13.9141 5.25 13.919 5.25 13.9239 5.25C13.9289 5.25 13.9338 5.25 13.9387 5.25C13.9436 5.25 13.9484 5.25 13.9533 5.25C13.9582 5.25 13.963 5.25 13.9679 5.25C13.9727 5.25 13.9775 5.25 13.9823 5.25C13.9871 5.25 13.9919 5.25 13.9967 5.25C14.0014 5.25 14.0062 5.25 14.0109 5.25C14.0157 5.25 14.0204 5.25 14.0251 5.25C14.0298 5.25 14.0345 5.25 14.0392 5.25C14.0439 5.25 14.0485 5.25 14.0532 5.25C14.0578 5.25 14.0625 5.25 14.0671 5.25C14.0717 5.25 14.0763 5.25 14.0809 5.25C14.0855 5.25 14.09 5.25 14.0946 5.25C14.0992 5.25 14.1037 5.25 14.1082 5.25C14.1127 5.25 14.1172 5.25 14.1217 5.25C14.1262 5.25 14.1307 5.25 14.1352 5.25C14.1396 5.25 14.1441 5.25 14.1485 5.25C14.1529 5.25 14.1573 5.25 14.1617 5.25C14.1661 5.25 14.1705 5.25 14.1749 5.25C14.1793 5.25 14.1836 5.25 14.1879 5.25C14.1923 5.25 14.1966 5.25 14.2009 5.25C14.2052 5.25 14.2095 5.25 14.2138 5.25C14.218 5.25 14.2223 5.25 14.2265 5.25C14.2308 5.25 14.235 5.25 14.2392 5.25C14.2434 5.25 14.2476 5.25 14.2518 5.25C14.2559 5.25 14.2601 5.25 14.2642 5.25C14.2684 5.25 14.2725 5.25 14.2766 5.25C14.2807 5.25 14.2848 5.25 14.2889 5.25C14.293 5.25 14.2971 5.25 14.3011 5.25C14.3051 5.25 14.3092 5.25 14.3132 5.25C14.3172 5.25 14.3212 5.25 14.3252 5.25C14.3292 5.25 14.3331 5.25 14.3371 5.25C14.341 5.25 14.345 5.25 14.3489 5.25C14.3528 5.25 14.3567 5.25 14.3606 5.25C14.3645 5.25 14.3683 5.25 14.3722 5.25C14.376 5.25 14.3799 5.25 14.3837 5.25C14.3875 5.25 14.3913 5.25 14.3951 5.25C14.3989 5.25 14.4026 5.25 14.4064 5.25C14.4101 5.25 14.4139 5.25 14.4176 5.25C14.4213 5.25 14.425 5.25 14.4287 5.25C14.4324 5.25 14.4361 5.25 14.4397 5.25C14.4434 5.25 14.447 5.25 14.4506 5.25C14.4542 5.25 14.4578 5.25 14.4614 5.25C14.465 5.25 14.4686 5.25 14.4721 5.25C14.4757 5.25 14.4792 5.25 14.4827 5.25C14.4863 5.25 14.4898 5.25 14.4933 5.25C14.4967 5.25 14.5002 5.25 14.5037 5.25C14.5071 5.25 14.5105 5.25 14.514 5.25C14.5174 5.25 14.5208 5.25 14.5242 5.25C14.5276 5.25 14.5309 5.25 14.5343 5.25C14.5376 5.25 14.541 5.25 14.5443 5.25C14.5476 5.25 14.5509 5.25 14.5542 5.25C14.5575 5.25 14.5607 5.25 14.564 5.25C14.5672 5.25 14.5704 5.25 14.5737 5.25C14.5769 5.25 14.5801 5.25 14.5833 5.25C14.5864 5.25 14.5896 5.25 14.5927 5.25C14.5959 5.25 14.599 5.25 14.6021 5.25C14.6052 5.25 14.6083 5.25 14.6114 5.25C14.6145 5.25 14.6175 5.25 14.6206 5.25C14.6236 5.25 14.6267 5.25 14.6297 5.25C14.6327 5.25 14.6357 5.25 14.6386 5.25C14.6416 5.25 14.6446 5.25 14.6475 5.25C14.6504 5.25 14.6534 5.25 14.6563 5.25C14.6592 5.25 14.6621 5.25 14.6649 5.25C14.6678 5.25 14.6706 5.25 14.6735 5.25C14.6763 5.25 14.6791 5.25 14.6819 5.25C14.6847 5.25 14.6875 5.25 14.6903 5.25C14.693 5.25 14.6958 5.25 14.6985 5.25C14.7012 5.25 14.7039 5.25 14.7066 5.25C14.7093 5.25 14.712 5.25 14.7147 5.25C14.7173 5.25 14.72 5.25 14.7226 5.25C14.7252 5.25 14.7278 5.25 14.7304 5.25C14.733 5.25 14.7355 5.25 14.7381 5.25C14.7406 5.25 14.7432 5.25 14.7457 5.25C14.7482 5.25 14.7507 5.25 14.7532 5.25C14.7557 5.25 14.7581 5.25 14.7606 5.25C14.763 5.25 14.7654 5.25 14.7678 5.25C14.7703 5.25 14.7726 5.25 14.775 5.25C14.7774 5.25 14.7797 5.25 14.7821 5.25C14.7844 5.25 14.7867 5.25 14.789 5.25C14.7913 5.25 14.7936 5.25 14.7959 5.25C14.7981 5.25 14.8004 5.25 14.8026 5.25C14.8048 5.25 14.8071 5.25 14.8092 5.25C14.8114 5.25 14.8136 5.25 14.8158 5.25C14.8179 5.25 14.8201 5.25 14.8222 5.25C14.8243 5.25 14.8264 5.25 14.8285 5.25C14.8306 5.25 14.8326 5.25 14.8347 5.25C14.8367 5.25 14.8387 5.25 14.8407 5.25C14.8428 5.25 14.8447 5.25 14.8467 5.25C14.8487 5.25 14.8506 5.25 14.8526 5.25C14.8545 5.25 14.8564 5.25 14.8583 5.25C14.8602 5.25 14.8621 5.25 14.864 5.25C14.8658 5.25 14.8677 5.25 14.8695 5.25C14.8713 5.25 14.8731 5.25 14.8749 5.25C14.8767 5.25 14.8785 5.25 14.8802 5.25C14.882 5.25 14.8837 5.25 14.8854 5.25C14.8871 5.25 14.8888 5.25 14.8905 5.25C14.8922 5.25 14.8938 5.25 14.8955 5.25C14.8971 5.25 14.8987 5.25 14.9003 5.25C14.9019 5.25 14.9035 5.25 14.9051 5.25C14.9066 5.25 14.9082 5.25 14.9097 5.25C14.9112 5.25 14.9127 5.25 14.9142 5.25C14.9157 5.25 14.9172 5.25 14.9186 5.25C14.9201 5.25 14.9215 5.25 14.9229 5.25C14.9243 5.25 14.9257 5.25 14.9271 5.25C14.9285 5.25 14.9298 5.25 14.9311 5.25C14.9325 5.25 14.9338 5.25 14.9351 5.25C14.9364 5.25 14.9377 5.25 14.9389 5.25C14.9402 5.25 14.9414 5.25 14.9427 5.25C14.9439 5.25 14.9451 5.25 14.9463 5.25C14.9474 5.25 14.9486 5.25 14.9498 5.25C14.9509 5.25 14.952 5.25 14.9531 5.25C14.9542 5.25 14.9553 5.25 14.9564 5.25C14.9575 5.25 14.9585 5.25 14.9595 5.25C14.9606 5.25 14.9616 5.25 14.9626 5.25C14.9636 5.25 14.9645 5.25 14.9655 5.25C14.9664 5.25 14.9674 5.25 14.9683 5.25C14.9692 5.25 14.9701 5.25 14.971 5.25C14.9718 5.25 14.9727 5.25 14.9735 5.25C14.9744 5.25 14.9752 5.25 14.976 5.25C14.9768 5.25 14.9775 5.25 14.9783 5.25C14.9791 5.25 14.9798 5.25 14.9805 5.25C14.9812 5.25 14.9819 5.25 14.9826 5.25C14.9833 5.25 14.9839 5.25 14.9846 5.25C14.9852 5.25 14.9858 5.25 14.9864 5.25C14.987 5.25 14.9876 5.25 14.9882 5.25C14.9887 5.25 14.9893 5.25 14.9898 5.25C14.9903 5.25 14.9908 5.25 14.9913 5.25C14.9918 5.25 14.9922 5.25 14.9927 5.25C14.9931 5.25 14.9936 5.25 14.994 5.25C14.9944 5.25 14.9947 5.25 14.9951 5.25C14.9955 5.25 14.9958 5.25 14.9961 5.25C14.9964 5.25 14.9968 5.25 14.997 5.25C14.9973 5.25 14.9976 5.25 14.9978 5.25C14.9981 5.25 14.9983 5.25 14.9985 5.25C14.9987 5.25 14.9989 5.25 14.999 5.25C14.9992 5.25 14.9993 5.25 14.9995 5.25C14.9996 5.25 14.9997 5.25 14.9998 5.25C14.9998 5.25 14.9999 5.25 14.9999 5.25C15 5.25 15 5.25 15 4.5C15 3.75 15 3.75 14.9999 3.75C14.9999 3.75 14.9998 3.75 14.9998 3.75C14.9997 3.75 14.9996 3.75 14.9995 3.75C14.9993 3.75 14.9992 3.75 14.999 3.75C14.9989 3.75 14.9987 3.75 14.9985 3.75C14.9983 3.75 14.9981 3.75 14.9978 3.75C14.9976 3.75 14.9973 3.75 14.997 3.75C14.9968 3.75 14.9964 3.75 14.9961 3.75C14.9958 3.75 14.9955 3.75 14.9951 3.75C14.9947 3.75 14.9944 3.75 14.994 3.75C14.9936 3.75 14.9931 3.75 14.9927 3.75C14.9922 3.75 14.9918 3.75 14.9913 3.75C14.9908 3.75 14.9903 3.75 14.9898 3.75C14.9893 3.75 14.9887 3.75 14.9882 3.75C14.9876 3.75 14.987 3.75 14.9864 3.75C14.9858 3.75 14.9852 3.75 14.9846 3.75C14.9839 3.75 14.9833 3.75 14.9826 3.75C14.9819 3.75 14.9812 3.75 14.9805 3.75C14.9798 3.75 14.9791 3.75 14.9783 3.75C14.9775 3.75 14.9768 3.75 14.976 3.75C14.9752 3.75 14.9744 3.75 14.9735 3.75C14.9727 3.75 14.9718 3.75 14.971 3.75C14.9701 3.75 14.9692 3.75 14.9683 3.75C14.9674 3.75 14.9664 3.75 14.9655 3.75C14.9645 3.75 14.9636 3.75 14.9626 3.75C14.9616 3.75 14.9606 3.75 14.9595 3.75C14.9585 3.75 14.9575 3.75 14.9564 3.75C14.9553 3.75 14.9542 3.75 14.9531 3.75C14.952 3.75 14.9509 3.75 14.9498 3.75C14.9486 3.75 14.9474 3.75 14.9463 3.75C14.9451 3.75 14.9439 3.75 14.9427 3.75C14.9414 3.75 14.9402 3.75 14.9389 3.75C14.9377 3.75 14.9364 3.75 14.9351 3.75C14.9338 3.75 14.9325 3.75 14.9311 3.75C14.9298 3.75 14.9285 3.75 14.9271 3.75C14.9257 3.75 14.9243 3.75 14.9229 3.75C14.9215 3.75 14.9201 3.75 14.9186 3.75C14.9172 3.75 14.9157 3.75 14.9142 3.75C14.9127 3.75 14.9112 3.75 14.9097 3.75C14.9082 3.75 14.9066 3.75 14.9051 3.75C14.9035 3.75 14.9019 3.75 14.9003 3.75C14.8987 3.75 14.8971 3.75 14.8955 3.75C14.8938 3.75 14.8922 3.75 14.8905 3.75C14.8888 3.75 14.8871 3.75 14.8854 3.75C14.8837 3.75 14.882 3.75 14.8802 3.75C14.8785 3.75 14.8767 3.75 14.8749 3.75C14.8731 3.75 14.8713 3.75 14.8695 3.75C14.8677 3.75 14.8658 3.75 14.864 3.75C14.8621 3.75 14.8602 3.75 14.8583 3.75C14.8564 3.75 14.8545 3.75 14.8526 3.75C14.8506 3.75 14.8487 3.75 14.8467 3.75C14.8447 3.75 14.8428 3.75 14.8407 3.75C14.8387 3.75 14.8367 3.75 14.8347 3.75C14.8326 3.75 14.8306 3.75 14.8285 3.75C14.8264 3.75 14.8243 3.75 14.8222 3.75C14.8201 3.75 14.8179 3.75 14.8158 3.75C14.8136 3.75 14.8114 3.75 14.8092 3.75C14.8071 3.75 14.8048 3.75 14.8026 3.75C14.8004 3.75 14.7981 3.75 14.7959 3.75C14.7936 3.75 14.7913 3.75 14.789 3.75C14.7867 3.75 14.7844 3.75 14.7821 3.75C14.7797 3.75 14.7774 3.75 14.775 3.75C14.7726 3.75 14.7703 3.75 14.7678 3.75C14.7654 3.75 14.763 3.75 14.7606 3.75C14.7581 3.75 14.7557 3.75 14.7532 3.75C14.7507 3.75 14.7482 3.75 14.7457 3.75C14.7432 3.75 14.7406 3.75 14.7381 3.75C14.7355 3.75 14.733 3.75 14.7304 3.75C14.7278 3.75 14.7252 3.75 14.7226 3.75C14.72 3.75 14.7173 3.75 14.7147 3.75C14.712 3.75 14.7093 3.75 14.7066 3.75C14.7039 3.75 14.7012 3.75 14.6985 3.75C14.6958 3.75 14.693 3.75 14.6903 3.75C14.6875 3.75 14.6847 3.75 14.6819 3.75C14.6791 3.75 14.6763 3.75 14.6735 3.75C14.6706 3.75 14.6678 3.75 14.6649 3.75C14.6621 3.75 14.6592 3.75 14.6563 3.75C14.6534 3.75 14.6504 3.75 14.6475 3.75C14.6446 3.75 14.6416 3.75 14.6386 3.75C14.6357 3.75 14.6327 3.75 14.6297 3.75C14.6267 3.75 14.6236 3.75 14.6206 3.75C14.6175 3.75 14.6145 3.75 14.6114 3.75C14.6083 3.75 14.6052 3.75 14.6021 3.75C14.599 3.75 14.5959 3.75 14.5927 3.75C14.5896 3.75 14.5864 3.75 14.5833 3.75C14.5801 3.75 14.5769 3.75 14.5737 3.75C14.5704 3.75 14.5672 3.75 14.564 3.75C14.5607 3.75 14.5575 3.75 14.5542 3.75C14.5509 3.75 14.5476 3.75 14.5443 3.75C14.541 3.75 14.5376 3.75 14.5343 3.75C14.5309 3.75 14.5276 3.75 14.5242 3.75C14.5208 3.75 14.5174 3.75 14.514 3.75C14.5105 3.75 14.5071 3.75 14.5037 3.75C14.5002 3.75 14.4967 3.75 14.4933 3.75C14.4898 3.75 14.4863 3.75 14.4827 3.75C14.4792 3.75 14.4757 3.75 14.4721 3.75C14.4686 3.75 14.465 3.75 14.4614 3.75C14.4578 3.75 14.4542 3.75 14.4506 3.75C14.447 3.75 14.4434 3.75 14.4397 3.75C14.4361 3.75 14.4324 3.75 14.4287 3.75C14.425 3.75 14.4213 3.75 14.4176 3.75C14.4139 3.75 14.4101 3.75 14.4064 3.75C14.4026 3.75 14.3989 3.75 14.3951 3.75C14.3913 3.75 14.3875 3.75 14.3837 3.75C14.3799 3.75 14.376 3.75 14.3722 3.75C14.3683 3.75 14.3645 3.75 14.3606 3.75C14.3567 3.75 14.3528 3.75 14.3489 3.75C14.345 3.75 14.341 3.75 14.3371 3.75C14.3331 3.75 14.3292 3.75 14.3252 3.75C14.3212 3.75 14.3172 3.75 14.3132 3.75C14.3092 3.75 14.3051 3.75 14.3011 3.75C14.2971 3.75 14.293 3.75 14.2889 3.75C14.2848 3.75 14.2807 3.75 14.2766 3.75C14.2725 3.75 14.2684 3.75 14.2642 3.75C14.2601 3.75 14.2559 3.75 14.2518 3.75C14.2476 3.75 14.2434 3.75 14.2392 3.75C14.235 3.75 14.2308 3.75 14.2265 3.75C14.2223 3.75 14.218 3.75 14.2138 3.75C14.2095 3.75 14.2052 3.75 14.2009 3.75C14.1966 3.75 14.1923 3.75 14.1879 3.75C14.1836 3.75 14.1793 3.75 14.1749 3.75C14.1705 3.75 14.1661 3.75 14.1617 3.75C14.1573 3.75 14.1529 3.75 14.1485 3.75C14.1441 3.75 14.1396 3.75 14.1352 3.75C14.1307 3.75 14.1262 3.75 14.1217 3.75C14.1172 3.75 14.1127 3.75 14.1082 3.75C14.1037 3.75 14.0992 3.75 14.0946 3.75C14.09 3.75 14.0855 3.75 14.0809 3.75C14.0763 3.75 14.0717 3.75 14.0671 3.75C14.0625 3.75 14.0578 3.75 14.0532 3.75C14.0485 3.75 14.0439 3.75 14.0392 3.75C14.0345 3.75 14.0298 3.75 14.0251 3.75C14.0204 3.75 14.0157 3.75 14.0109 3.75C14.0062 3.75 14.0014 3.75 13.9967 3.75C13.9919 3.75 13.9871 3.75 13.9823 3.75C13.9775 3.75 13.9727 3.75 13.9679 3.75C13.963 3.75 13.9582 3.75 13.9533 3.75C13.9484 3.75 13.9436 3.75 13.9387 3.75C13.9338 3.75 13.9289 3.75 13.9239 3.75C13.919 3.75 13.9141 3.75 13.9091 3.75C13.9042 3.75 13.8992 3.75 13.8942 3.75C13.8892 3.75 13.8842 3.75 13.8792 3.75C13.8742 3.75 13.8692 3.75 13.8641 3.75C13.8591 3.75 13.854 3.75 13.849 3.75C13.8439 3.75 13.8388 3.75 13.8337 3.75C13.8286 3.75 13.8235 3.75 13.8183 3.75C13.8132 3.75 13.8081 3.75 13.8029 3.75C13.7977 3.75 13.7925 3.75 13.7873 3.75C13.7822 3.75 13.7769 3.75 13.7717 3.75C13.7665 3.75 13.7613 3.75 13.756 3.75C13.7508 3.75 13.7455 3.75 13.7402 3.75C13.7349 3.75 13.7296 3.75 13.7243 3.75C13.719 3.75 13.7137 3.75 13.7083 3.75C13.703 3.75 13.6976 3.75 13.6923 3.75C13.6869 3.75 13.6815 3.75 13.6761 3.75C13.6707 3.75 13.6653 3.75 13.6599 3.75C13.6544 3.75 13.649 3.75 13.6435 3.75C13.6381 3.75 13.6326 3.75 13.6271 3.75C13.6216 3.75 13.6161 3.75 13.6106 3.75C13.6051 3.75 13.5996 3.75 13.594 3.75C13.5885 3.75 13.5829 3.75 13.5774 3.75C13.5718 3.75 13.5662 3.75 13.5606 3.75C13.555 3.75 13.5494 3.75 13.5438 3.75C13.5381 3.75 13.5325 3.75 13.5268 3.75C13.5212 3.75 13.5155 3.75 13.5098 3.75C13.5041 3.75 13.4984 3.75 13.4927 3.75C13.487 3.75 13.4813 3.75 13.4755 3.75C13.4698 3.75 13.464 3.75 13.4582 3.75C13.4525 3.75 13.4467 3.75 13.4409 3.75C13.4351 3.75 13.4293 3.75 13.4234 3.75C13.4176 3.75 13.4118 3.75 13.4059 3.75C13.4001 3.75 13.3942 3.75 13.3883 3.75C13.3824 3.75 13.3765 3.75 13.3706 3.75C13.3647 3.75 13.3588 3.75 13.3528 3.75C13.3469 3.75 13.3409 3.75 13.335 3.75C13.329 3.75 13.323 3.75 13.317 3.75C13.311 3.75 13.305 3.75 13.299 3.75C13.293 3.75 13.287 3.75 13.2809 3.75C13.2749 3.75 13.2688 3.75 13.2627 3.75C13.2566 3.75 13.2505 3.75 13.2444 3.75C13.2383 3.75 13.2322 3.75 13.2261 3.75C13.22 3.75 13.2138 3.75 13.2076 3.75C13.2015 3.75 13.1953 3.75 13.1891 3.75C13.1829 3.75 13.1767 3.75 13.1705 3.75C13.1643 3.75 13.1581 3.75 13.1519 3.75C13.1456 3.75 13.1394 3.75 13.1331 3.75C13.1268 3.75 13.1205 3.75 13.1143 3.75C13.108 3.75 13.1017 3.75 13.0953 3.75C13.089 3.75 13.0827 3.75 13.0763 3.75C13.07 3.75 13.0636 3.75 13.0572 3.75C13.0509 3.75 13.0445 3.75 13.0381 3.75C13.0317 3.75 13.0253 3.75 13.0188 3.75C13.0124 3.75 13.006 3.75 12.9995 3.75C12.9931 3.75 12.9866 3.75 12.9801 3.75C12.9736 3.75 12.9672 3.75 12.9607 3.75C12.9541 3.75 12.9476 3.75 12.9411 3.75C12.9346 3.75 12.928 3.75 12.9215 3.75C12.9149 3.75 12.9083 3.75 12.9017 3.75C12.8952 3.75 12.8886 3.75 12.882 3.75C12.8753 3.75 12.8687 3.75 12.8621 3.75C12.8555 3.75 12.8488 3.75 12.8421 3.75C12.8355 3.75 12.8288 3.75 12.8221 3.75C12.8154 3.75 12.8087 3.75 12.802 3.75C12.7953 3.75 12.7886 3.75 12.7818 3.75C12.7751 3.75 12.7684 3.75 12.7616 3.75C12.7548 3.75 12.7481 3.75 12.7413 3.75C12.7345 3.75 12.7277 3.75 12.7209 3.75C12.714 3.75 12.7072 3.75 12.7004 3.75C12.6935 3.75 12.6867 3.75 12.6798 3.75C12.673 3.75 12.6661 3.75 12.6592 3.75C12.6523 3.75 12.6454 3.75 12.6385 3.75C12.6316 3.75 12.6246 3.75 12.6177 3.75C12.6108 3.75 12.6038 3.75 12.5968 3.75C12.5899 3.75 12.5829 3.75 12.5759 3.75C12.5689 3.75 12.5619 3.75 12.5549 3.75C12.5479 3.75 12.5409 3.75 12.5338 3.75C12.5268 3.75 12.5197 3.75 12.5127 3.75C12.5056 3.75 12.4985 3.75 12.4914 3.75C12.4844 3.75 12.4773 3.75 12.4701 3.75C12.463 3.75 12.4559 3.75 12.4488 3.75C12.4416 3.75 12.4345 3.75 12.4273 3.75C12.4202 3.75 12.413 3.75 12.4058 3.75C12.3986 3.75 12.3914 3.75 12.3842 3.75C12.377 3.75 12.3698 3.75 12.3625 3.75C12.3553 3.75 12.3481 3.75 12.3408 3.75C12.3335 3.75 12.3263 3.75 12.319 3.75C12.3117 3.75 12.3044 3.75 12.2971 3.75C12.2898 3.75 12.2825 3.75 12.2752 3.75C12.2678 3.75 12.2605 3.75 12.2531 3.75C12.2458 3.75 12.2384 3.75 12.231 3.75C12.2237 3.75 12.2163 3.75 12.2089 3.75C12.2015 3.75 12.1941 3.75 12.1866 3.75C12.1792 3.75 12.1718 3.75 12.1643 3.75C12.1569 3.75 12.1494 3.75 12.142 3.75C12.1345 3.75 12.127 3.75 12.1195 3.75C12.112 3.75 12.1045 3.75 12.097 3.75C12.0895 3.75 12.0819 3.75 12.0744 3.75C12.0669 3.75 12.0593 3.75 12.0517 3.75C12.0442 3.75 12.0366 3.75 12.029 3.75C12.0214 3.75 12.0138 3.75 12.0062 3.75C11.9986 3.75 11.991 3.75 11.9834 3.75C11.9757 3.75 11.9681 3.75 11.9604 3.75C11.9528 3.75 11.9451 3.75 11.9374 3.75C11.9298 3.75 11.9221 3.75 11.9144 3.75C11.9067 3.75 11.899 3.75 11.8912 3.75C11.8835 3.75 11.8758 3.75 11.868 3.75C11.8603 3.75 11.8525 3.75 11.8448 3.75C11.837 3.75 11.8292 3.75 11.8214 3.75C11.8136 3.75 11.8058 3.75 11.798 3.75C11.7902 3.75 11.7824 3.75 11.7746 3.75C11.7667 3.75 11.7589 3.75 11.751 3.75C11.7432 3.75 11.7353 3.75 11.7274 3.75C11.7195 3.75 11.7117 3.75 11.7038 3.75C11.6959 3.75 11.6879 3.75 11.68 3.75C11.6721 3.75 11.6642 3.75 11.6562 3.75C11.6483 3.75 11.6403 3.75 11.6324 3.75C11.6244 3.75 11.6164 3.75 11.6084 3.75C11.6004 3.75 11.5924 3.75 11.5844 3.75C11.5764 3.75 11.5684 3.75 11.5604 3.75C11.5523 3.75 11.5443 3.75 11.5363 3.75C11.5282 3.75 11.5201 3.75 11.5121 3.75C11.504 3.75 11.4959 3.75 11.4878 3.75C11.4797 3.75 11.4716 3.75 11.4635 3.75C11.4554 3.75 11.4473 3.75 11.4391 3.75C11.431 3.75 11.4228 3.75 11.4147 3.75C11.4065 3.75 11.3984 3.75 11.3902 3.75C11.382 3.75 11.3738 3.75 11.3656 3.75C11.3574 3.75 11.3492 3.75 11.341 3.75C11.3328 3.75 11.3245 3.75 11.3163 3.75C11.308 3.75 11.2998 3.75 11.2915 3.75C11.2833 3.75 11.275 3.75 11.2667 3.75C11.2584 3.75 11.2501 3.75 11.2418 3.75C11.2335 3.75 11.2252 3.75 11.2169 3.75C11.2086 3.75 11.2002 3.75 11.1919 3.75C11.1835 3.75 11.1752 3.75 11.1668 3.75C11.1585 3.75 11.1501 3.75 11.1417 3.75C11.1333 3.75 11.1249 3.75 11.1165 3.75C11.1081 3.75 11.0997 3.75 11.0913 3.75C11.0828 3.75 11.0744 3.75 11.066 3.75C11.0575 3.75 11.0491 3.75 11.0406 3.75C11.0321 3.75 11.0237 3.75 11.0152 3.75C11.0067 3.75 10.9982 3.75 10.9897 3.75C10.9812 3.75 10.9727 3.75 10.9641 3.75C10.9556 3.75 10.9471 3.75 10.9385 3.75C10.93 3.75 10.9214 3.75 10.9129 3.75C10.9043 3.75 10.8957 3.75 10.8872 3.75C10.8786 3.75 10.87 3.75 10.8614 3.75C10.8528 3.75 10.8442 3.75 10.8355 3.75C10.8269 3.75 10.8183 3.75 10.8096 3.75C10.801 3.75 10.7924 3.75 10.7837 3.75C10.775 3.75 10.7664 3.75 10.7577 3.75C10.749 3.75 10.7403 3.75 10.7316 3.75C10.7229 3.75 10.7142 3.75 10.7055 3.75C10.6968 3.75 10.688 3.75 10.6793 3.75C10.6706 3.75 10.6618 3.75 10.6531 3.75C10.6443 3.75 10.6355 3.75 10.6268 3.75C10.618 3.75 10.6092 3.75 10.6004 3.75C10.5916 3.75 10.5828 3.75 10.574 3.75C10.5652 3.75 10.5564 3.75 10.5476 3.75C10.5387 3.75 10.5299 3.75 10.521 3.75C10.5122 3.75 10.5033 3.75 10.4945 3.75C10.4856 3.75 10.4767 3.75 10.4678 3.75C10.4589 3.75 10.4501 3.75 10.4411 3.75C10.4322 3.75 10.4233 3.75 10.4144 3.75C10.4055 3.75 10.3966 3.75 10.3876 3.75C10.3787 3.75 10.3697 3.75 10.3608 3.75C10.3518 3.75 10.3428 3.75 10.3339 3.75C10.3249 3.75 10.3159 3.75 10.3069 3.75C10.2979 3.75 10.2889 3.75 10.2799 3.75C10.2709 3.75 10.2619 3.75 10.2528 3.75C10.2438 3.75 10.2348 3.75 10.2257 3.75C10.2167 3.75 10.2076 3.75 10.1986 3.75C10.1895 3.75 10.1804 3.75 10.1713 3.75C10.1623 3.75 10.1532 3.75 10.1441 3.75C10.135 3.75 10.1259 3.75 10.1167 3.75C10.1076 3.75 10.0985 3.75 10.0894 3.75C10.0802 3.75 10.0711 3.75 10.0619 3.75C10.0528 3.75 10.0436 3.75 10.0344 3.75C10.0253 3.75 10.0161 3.75 10.0069 3.75C9.99773 3.75 9.98853 3.75 9.97933 3.75C9.97012 3.75 9.96091 3.75 9.95169 3.75C9.94247 3.75 9.93324 3.75 9.92401 3.75C9.91477 3.75 9.90552 3.75 9.89627 3.75C9.88702 3.75 9.87776 3.75 9.86848 3.75C9.85921 3.75 9.84994 3.75 9.84065 3.75C9.83136 3.75 9.82207 3.75 9.81276 3.75C9.80346 3.75 9.79415 3.75 9.78483 3.75C9.77551 3.75 9.76618 3.75 9.75684 3.75C9.7475 3.75 9.73816 3.75 9.72881 3.75C9.71945 3.75 9.71009 3.75 9.70072 3.75C9.69135 3.75 9.68198 3.75 9.67259 3.75C9.66321 3.75 9.65381 3.75 9.64441 3.75C9.63501 3.75 9.6256 3.75 9.61618 3.75C9.60676 3.75 9.59734 3.75 9.5879 3.75C9.57847 3.75 9.56903 3.75 9.55958 3.75C9.55013 3.75 9.54067 3.75 9.53121 3.75C9.52174 3.75 9.51227 3.75 9.50279 3.75C9.49331 3.75 9.48382 3.75 9.47432 3.75C9.46482 3.75 9.45532 3.75 9.44581 3.75C9.43629 3.75 9.42677 3.75 9.41725 3.75C9.40772 3.75 9.39818 3.75 9.38864 3.75C9.3791 3.75 9.36954 3.75 9.35999 3.75C9.35043 3.75 9.34086 3.75 9.33129 3.75C9.32171 3.75 9.31213 3.75 9.30254 3.75C9.29295 3.75 9.28335 3.75 9.27375 3.75C9.26414 3.75 9.25453 3.75 9.24491 3.75C9.23529 3.75 9.22567 3.75 9.21603 3.75C9.2064 3.75 9.19675 3.75 9.1871 3.75C9.17745 3.75 9.1678 3.75 9.15813 3.75C9.14847 3.75 9.1388 3.75 9.12912 3.75C9.11944 3.75 9.10975 3.75 9.10006 3.75C9.09036 3.75 9.08066 3.75 9.07095 3.75C9.06124 3.75 9.05153 3.75 9.0418 3.75C9.03208 3.75 9.02235 3.75 9.01261 3.75C9.00287 3.75 8.99313 3.75 8.98338 3.75C8.97362 3.75 8.96386 3.75 8.9541 3.75C8.94433 3.75 8.93456 3.75 8.92478 3.75C8.915 3.75 8.90521 3.75 8.89541 3.75C8.88562 3.75 8.87581 3.75 8.86601 3.75C8.8562 3.75 8.84638 3.75 8.83656 3.75C8.82673 3.75 8.8169 3.75 8.80707 3.75C8.79723 3.75 8.78738 3.75 8.77753 3.75C8.76768 3.75 8.75782 3.75 8.74796 3.75C8.73809 3.75 8.72822 3.75 8.71834 3.75C8.70846 3.75 8.69858 3.75 8.68868 3.75C8.67879 3.75 8.66889 3.75 8.65899 3.75C8.64908 3.75 8.63917 3.75 8.62925 3.75C8.61933 3.75 8.6094 3.75 8.59947 3.75C8.58953 3.75 8.57959 3.75 8.56965 3.75C8.5597 3.75 8.54975 3.75 8.53979 3.75C8.52983 3.75 8.51986 3.75 8.50989 3.75C8.49991 3.75 8.48993 3.75 8.47995 3.75C8.46996 3.75 8.45997 3.75 8.44997 3.75C8.43997 3.75 8.42996 3.75 8.41995 3.75C8.40994 3.75 8.39992 3.75 8.38989 3.75C8.37987 3.75 8.36983 3.75 8.35979 3.75C8.34976 3.75 8.33971 3.75 8.32966 3.75C8.31961 3.75 8.30955 3.75 8.29949 3.75C8.28942 3.75 8.27935 3.75 8.26928 3.75C8.2592 3.75 8.24911 3.75 8.23903 3.75C8.22894 3.75 8.21884 3.75 8.20874 3.75C8.19864 3.75 8.18853 3.75 8.17841 3.75C8.1683 3.75 8.15818 3.75 8.14805 3.75C8.13793 3.75 8.12779 3.75 8.11765 3.75C8.10752 3.75 8.09737 3.75 8.08722 3.75C8.07707 3.75 8.06691 3.75 8.05675 3.75C8.04658 3.75 8.03641 3.75 8.02624 3.75C8.01606 3.75 8.00588 3.75 7.99569 3.75C7.98551 3.75 7.97531 3.75 7.96511 3.75C7.95491 3.75 7.94471 3.75 7.9345 3.75C7.92429 3.75 7.91407 3.75 7.90385 3.75C7.89362 3.75 7.88339 3.75 7.87316 3.75C7.86292 3.75 7.85268 3.75 7.84244 3.75C7.83219 3.75 7.82194 3.75 7.81168 3.75C7.80142 3.75 7.79116 3.75 7.78089 3.75C7.77062 3.75 7.76034 3.75 7.75006 3.75C7.73978 3.75 7.7295 3.75 7.7192 3.75C7.70891 3.75 7.69861 3.75 7.68831 3.75C7.67801 3.75 7.6677 3.75 7.65738 3.75C7.64707 3.75 7.63675 3.75 7.62642 3.75C7.6161 3.75 7.60576 3.75 7.59543 3.75C7.58509 3.75 7.57475 3.75 7.5644 3.75C7.55405 3.75 7.5437 3.75 7.53334 3.75C7.52298 3.75 7.51262 3.75 7.50225 3.75C7.49188 3.75 7.4815 3.75 7.47112 3.75C7.46074 3.75 7.45036 3.75 7.43996 3.75C7.42957 3.75 7.41918 3.75 7.40878 3.75C7.39837 3.75 7.38797 3.75 7.37755 3.75C7.36714 3.75 7.35673 3.75 7.3463 3.75C7.33588 3.75 7.32545 3.75 7.31502 3.75C7.30459 3.75 7.29415 3.75 7.2837 3.75C7.27326 3.75 7.26281 3.75 7.25236 3.75C7.2419 3.75 7.23145 3.75 7.22098 3.75C7.21052 3.75 7.20005 3.75 7.18958 3.75C7.1791 3.75 7.16862 3.75 7.15814 3.75C7.14766 3.75 7.13717 3.75 7.12667 3.75C7.11618 3.75 7.10568 3.75 7.09518 3.75C7.08467 3.75 7.07416 3.75 7.06365 3.75C7.05314 3.75 7.04262 3.75 7.03209 3.75C7.02157 3.75 7.01104 3.75 7.00051 3.75C6.98998 3.75 6.97944 3.75 6.9689 3.75C6.95835 3.75 6.94781 3.75 6.93726 3.75C6.9267 3.75 6.91615 3.75 6.90559 3.75C6.89502 3.75 6.88446 3.75 6.87389 3.75C6.86332 3.75 6.85274 3.75 6.84216 3.75C6.83158 3.75 6.821 3.75 6.81041 3.75C6.79982 3.75 6.78922 3.75 6.77862 3.75C6.76803 3.75 6.75742 3.75 6.74682 3.75C6.73621 3.75 6.7256 3.75 6.71498 3.75C6.70436 3.75 6.69374 3.75 6.68312 3.75C6.67249 3.75 6.66186 3.75 6.65123 3.75C6.64059 3.75 6.62995 3.75 6.61931 3.75C6.60867 3.75 6.59802 3.75 6.58737 3.75C6.57672 3.75 6.56606 3.75 6.5554 3.75C6.54474 3.75 6.53408 3.75 6.52341 3.75C6.51274 3.75 6.50207 3.75 6.49139 3.75C6.48071 3.75 6.47003 3.75 6.45934 3.75C6.44866 3.75 6.43797 3.75 6.42727 3.75C6.41658 3.75 6.40588 3.75 6.39518 3.75C6.38448 3.75 6.37377 3.75 6.36306 3.75C6.35235 3.75 6.34163 3.75 6.33092 3.75C6.3202 3.75 6.30947 3.75 6.29875 3.75C6.28802 3.75 6.27729 3.75 6.26656 3.75C6.25582 3.75 6.24508 3.75 6.23434 3.75C6.2236 3.75 6.21285 3.75 6.2021 3.75C6.19135 3.75 6.1806 3.75 6.16984 3.75C6.15908 3.75 6.14832 3.75 6.13755 3.75C6.12679 3.75 6.11602 3.75 6.10524 3.75C6.09447 3.75 6.08369 3.75 6.07291 3.75C6.06213 3.75 6.05135 3.75 6.04056 3.75C6.02977 3.75 6.01898 3.75 6.00818 3.75C5.99739 3.75 5.98659 3.75 5.97579 3.75C5.96498 3.75 5.95418 3.75 5.94337 3.75C5.93256 3.75 5.92174 3.75 5.91092 3.75C5.90011 3.75 5.88929 3.75 5.87846 3.75C5.86764 3.75 5.85681 3.75 5.84598 3.75C5.83515 3.75 5.82431 3.75 5.81347 3.75C5.80263 3.75 5.79179 3.75 5.78095 3.75C5.7701 3.75 5.75925 3.75 5.7484 3.75C5.73755 3.75 5.72669 3.75 5.71584 3.75C5.70498 3.75 5.69412 3.75 5.68325 3.75C5.67238 3.75 5.66152 3.75 5.65064 3.75C5.63977 3.75 5.6289 3.75 5.61802 3.75C5.60714 3.75 5.59626 3.75 5.58537 3.75C5.57449 3.75 5.5636 3.75 5.55271 3.75C5.54182 3.75 5.53092 3.75 5.52003 3.75C5.50913 3.75 5.49823 3.75 5.48733 3.75C5.47642 3.75 5.46552 3.75 5.45461 3.75C5.4437 3.75 5.43278 3.75 5.42187 3.75C5.41095 3.75 5.40003 3.75 5.38911 3.75C5.37819 3.75 5.36727 3.75 5.35634 3.75C5.34541 3.75 5.33448 3.75 5.32355 3.75C5.31261 3.75 5.30168 3.75 5.29074 3.75C5.2798 3.75 5.26886 3.75 5.25791 3.75C5.24697 3.75 5.23602 3.75 5.22507 3.75C5.21412 3.75 5.20316 3.75 5.19221 3.75C5.18125 3.75 5.17029 3.75 5.15933 3.75C5.14837 3.75 5.13741 3.75 5.12644 3.75C5.11547 3.75 5.1045 3.75 5.09353 3.75C5.08256 3.75 5.07158 3.75 5.06061 3.75C5.04963 3.75 5.03865 3.75 5.02767 3.75C5.01668 3.75 5.0057 3.75 4.99471 3.75C4.98372 3.75 4.97273 3.75 4.96174 3.75C4.95075 3.75 4.93975 3.75 4.92876 3.75C4.91776 3.75 4.90676 3.75 4.89576 3.75C4.88475 3.75 4.87375 3.75 4.86274 3.75C4.85173 3.75 4.84072 3.75 4.82971 3.75C4.8187 3.75 4.80769 3.75 4.79667 3.75C4.78565 3.75 4.77463 3.75 4.76361 3.75C4.75259 3.75 4.74157 3.75 4.73054 3.75C4.71952 3.75 4.70849 3.75 4.69746 3.75C4.68643 3.75 4.6754 3.75 4.66436 3.75C4.65333 3.75 4.64229 3.75 4.63125 3.75C4.62021 3.75 4.60917 3.75 4.59813 3.75C4.58709 3.75 4.57604 3.75 4.56499 3.75C4.55395 3.75 4.5429 3.75 4.53185 3.75C4.5208 3.75 4.50974 3.75 4.49869 3.75C4.48763 3.75 4.47658 3.75 4.46552 3.75C4.45446 3.75 4.4434 3.75 4.43233 3.75C4.42127 3.75 4.41021 3.75 4.39914 3.75C4.38807 3.75 4.377 3.75 4.36593 3.75C4.35486 3.75 4.34379 3.75 4.33272 3.75C4.32164 3.75 4.31057 3.75 4.29949 3.75C4.28841 3.75 4.27733 3.75 4.26625 3.75C4.25517 3.75 4.24409 3.75 4.23301 3.75C4.22192 3.75 4.21083 3.75 4.19975 3.75C4.18866 3.75 4.17757 3.75 4.16648 3.75C4.15539 3.75 4.1443 3.75 4.1332 3.75C4.12211 3.75 4.11101 3.75 4.09992 3.75C4.08882 3.75 4.07772 3.75 4.06662 3.75C4.05552 3.75 4.04442 3.75 4.03331 3.75C4.02221 3.75 4.01111 3.75 4 3.75V5.25ZM11 9.25H15V7.75H11V9.25ZM11 13.25H15V11.75H11V13.25ZM4 9.25H7.5V7.75H4V9.25ZM7.25 9V12.5H8.75V9H7.25ZM7.5 12.25H4V13.75H7.5V12.25ZM4.25 12.5V9H2.75V12.5H4.25ZM3 17.75H11.25V16.25H3V17.75ZM11.25 17.75H18.5V16.25H11.25V17.75ZM4 12.25C4.13807 12.25 4.25 12.3619 4.25 12.5H2.75C2.75 13.1904 3.30964 13.75 4 13.75V12.25ZM21.25 6.5C21.25 4.98122 20.0188 3.75 18.5 3.75V5.25C19.1904 5.25 19.75 5.80964 19.75 6.5H21.25ZM7.25 12.5C7.25 12.3619 7.36193 12.25 7.5 12.25V13.75C8.19036 13.75 8.75 13.1904 8.75 12.5H7.25ZM19.75 15C19.75 15.6904 19.1904 16.25 18.5 16.25V17.75C20.0188 17.75 21.25 16.5188 21.25 15H19.75ZM7.5 9.25C7.36193 9.25 7.25 9.13807 7.25 9H8.75C8.75 8.30964 8.19036 7.75 7.5 7.75V9.25ZM0.25 15C0.25 16.5188 1.48122 17.75 3 17.75V16.25C2.30964 16.25 1.75 15.6904 1.75 15H0.25ZM4 7.75C3.30964 7.75 2.75 8.30964 2.75 9H4.25C4.25 9.13807 4.13807 9.25 4 9.25V7.75ZM3 0.25C1.48122 0.25 0.25 1.48122 0.25 3H1.75C1.75 2.30964 2.30964 1.75 3 1.75V0.25ZM16 1.75C16.6904 1.75 17.25 2.30964 17.25 3H18.75C18.75 1.48122 17.5188 0.25 16 0.25V1.75Z" stroke-width="0"/>
</svg>
