<svg width="24" height="24" viewBox="0 0 24 24" fill="none" xmlns="http://www.w3.org/2000/svg">
    <path fill-rule="evenodd" clip-rule="evenodd" d="M7.225 9C7.225 6.36284 9.36284 4.225 12 4.225C14.6372 4.225 16.775 6.36284 16.775 9C16.775 11.6372 14.6372 13.775 12 13.775C9.36284 13.775 7.225 11.6372 7.225 9ZM15.225 9C15.225 7.21888 13.7811 5.775 12 5.775C10.2189 5.775 8.775 7.21888 8.775 9C8.775 10.7811 10.2189 12.225 12 12.225C13.7811 12.225 15.225 10.7811 15.225 9Z" fill="#595959"/>
    <path fill-rule="evenodd" clip-rule="evenodd" d="M12 0C18.6274 0 24 5.37258 24 12C24 18.6274 18.6274 24 12 24C5.37258 24 0 18.6274 0 12C0 5.37258 5.37258 0 12 0ZM12 1.5C6.20101 1.5 1.5 6.20101 1.5 12C1.5 14.3192 2.25189 16.4627 3.5252 18.2002C5.71967 16.2149 8.5612 15.225 12.0109 15.225C15.4584 15.225 18.2935 16.2137 20.4772 18.1969C21.7491 16.46 22.5 14.3177 22.5 12C22.5 6.20101 17.799 1.5 12 1.5ZM19.4719 19.3771C19.4648 19.3711 19.4579 19.365 19.451 19.3587C17.565 17.6382 15.0982 16.775 12.0109 16.775C8.92166 16.775 6.4481 17.6393 4.551 19.3624C4.54441 19.3684 4.53773 19.3742 4.53099 19.38C6.43452 21.3063 9.07786 22.5 12 22.5C14.9236 22.5 17.5681 21.3051 19.4719 19.3771Z" fill="#595959"/>
</svg>
