<svg width="19" height="19" viewBox="0 0 19 19" fill="none" xmlns="http://www.w3.org/2000/svg">
    <path fill-rule="evenodd" clip-rule="evenodd" d="M15.75 8C15.75 9.86201 15.0933 11.5707 13.999 12.907L18.6372 17.5451L18.7043 17.6219C18.9281 17.9159 18.9057 18.3373 18.6372 18.6058C18.3443 18.8987 17.8694 18.8987 17.5765 18.6058L12.9419 13.9702C11.6005 15.0818 9.87829 15.75 8 15.75C3.71979 15.75 0.25 12.2802 0.25 8C0.25 3.71979 3.71979 0.25 8 0.25C12.2802 0.25 15.75 3.71979 15.75 8ZM14.25 8C14.25 4.54822 11.4518 1.75 8 1.75C4.54822 1.75 1.75 4.54822 1.75 8C1.75 11.4518 4.54822 14.25 8 14.25C11.4518 14.25 14.25 11.4518 14.25 8Z" fill="#595959"/>
</svg>
