<svg width="20" height="20" viewBox="0 0 20 20" fill="none" xmlns="http://www.w3.org/2000/svg">
  <path d="M4.96395 12.7343L4.14702 18.0443C4.08532 18.4454 4.50187 18.7491 4.86482 18.5676L9.77639 16.1118C9.91716 16.0414 10.0828 16.0414 10.2236 16.1118L15.1352 18.5676C15.4981 18.7491 15.9147 18.4454 15.853 18.0444L15.036 12.7343C15.0132 12.586 15.0582 12.4353 15.1586 12.3238L18.8258 8.24906C19.1024 7.94175 18.9077 7.45064 18.4957 7.41631L13.7593 7.02161C13.5968 7.00806 13.4511 6.91613 13.3689 6.77527L10.4657 1.7984C10.2655 1.4552 9.76432 1.47135 9.58663 1.82673L7.1266 6.74679C7.04806 6.90388 6.89285 7.00824 6.71774 7.02171L1.51288 7.42209C1.09919 7.45391 0.902021 7.94669 1.17959 8.2551L4.84141 12.3238C4.94178 12.4353 4.98677 12.586 4.96395 12.7343Z"/>
</svg>
